<?xml version="1.0" encoding="UTF-8"?>
<!DOCTYPE svg PUBLIC "-//W3C//DTD SVG 1.1//EN" "http://www.w3.org/Graphics/SVG/1.1/DTD/svg11.dtd">
<!-- Creator: CorelDRAW -->
<svg xmlns="http://www.w3.org/2000/svg" xml:space="preserve" width="2048px" height="2048px" style="shape-rendering:geometricPrecision; text-rendering:geometricPrecision; image-rendering:optimizeQuality; fill-rule:evenodd; clip-rule:evenodd"
viewBox="0 0 2048 2048"
 xmlns:xlink="http://www.w3.org/1999/xlink">
 <defs>
  <style type="text/css">
   <![CDATA[
    .fil1 {fill:none}
    .fil0 {fill:#EC407A}
    .fil3 {fill:#FFFFFE}
    .fil2 {fill:#FFFFFE;fill-rule:nonzero}
   ]]>
  </style>
 </defs>
 <g id="Layer_x0020_1">
  <metadata id="CorelCorpID_0Corel-Layer"/>
  <rect class="fil0" width="2048" height="2048" rx="256.001" ry="256.001"/>
  <rect class="fil1" x="255.999" y="255.999" width="1536" height="1536"/>
  <path class="fil2" d="M1728 1056c26.5063,0 50.5075,10.748 67.8792,28.1209 17.3728,17.3728 28.1209,41.374 28.1209,67.8792 0,26.5063 -10.748,50.5075 -28.1209,67.8792 -17.3717,17.3728 -41.3729,28.1209 -67.8792,28.1209 -26.5051,0 -50.5063,-10.748 -67.8792,-28.1209 -17.3728,-17.3717 -28.1209,-41.3729 -28.1209,-67.8792 0,-26.5051 10.748,-50.5063 28.1209,-67.8792 17.3728,-17.3728 41.374,-28.1209 67.8792,-28.1209z"/>
  <path class="fil2" d="M1024 351.999c26.5063,0 50.5075,10.748 67.8792,28.1209 17.3728,17.3717 28.1209,41.3729 28.1209,67.8792 0,26.5051 -10.748,50.5063 -28.1209,67.8792 -17.3717,17.3728 -41.3729,28.1209 -67.8792,28.1209 -26.5063,0 -50.5075,-10.748 -67.8792,-28.1209 -17.3728,-17.3728 -28.1209,-41.374 -28.1209,-67.8792 0,-26.5063 10.748,-50.5075 28.1209,-67.8792 17.3717,-17.3728 41.3729,-28.1209 67.8792,-28.1209z"/>
  <path class="fil2" d="M1600 479.999c26.5063,0 50.5075,10.748 67.8792,28.1209 17.3728,17.3717 28.1209,41.3729 28.1209,67.8792 0,26.5051 -10.748,50.5063 -28.1209,67.8792 -17.3717,17.3728 -41.3729,28.1209 -67.8792,28.1209 -26.5051,0 -50.5063,-10.748 -67.8792,-28.1209 -17.3728,-17.3728 -28.1209,-41.374 -28.1209,-67.8792 0,-26.5063 10.748,-50.5075 28.1209,-67.8792 17.3728,-17.3728 41.374,-28.1209 67.8792,-28.1209z"/>
  <path class="fil2" d="M448 479.999c26.5051,0 50.5063,10.748 67.8792,28.1209 17.3728,17.3717 28.1209,41.3729 28.1209,67.8792 0,26.5051 -10.748,50.5063 -28.1209,67.8792 -17.3728,17.3728 -41.374,28.1209 -67.8792,28.1209 -26.5063,0 -50.5075,-10.748 -67.8792,-28.1209 -17.3728,-17.3728 -28.1209,-41.374 -28.1209,-67.8792 0,-26.5063 10.748,-50.5075 28.1209,-67.8792 17.3717,-17.3728 41.3729,-28.1209 67.8792,-28.1209z"/>
  <path class="fil2" d="M320.001 1056c26.5051,0 50.5063,10.748 67.8792,28.1209 17.3728,17.3728 28.1209,41.374 28.1209,67.8792 0,26.5063 -10.748,50.5075 -28.1209,67.8792 -17.3728,17.3728 -41.374,28.1209 -67.8792,28.1209 -26.5063,0 -50.5075,-10.748 -67.8792,-28.1209 -17.3728,-17.3717 -28.1209,-41.3729 -28.1209,-67.8792 0,-26.5051 10.748,-50.5063 28.1209,-67.8792 17.3717,-17.3728 41.3729,-28.1209 67.8792,-28.1209z"/>
  <path class="fil3" d="M1056 575.997l0 160.002 338.751 0 86.6233 -86.6233 45.2504 45.2504 -86.6245 86.6245 0 338.748 160.001 0 0 64.0016 -160.001 0 0 351.999 0 32.0008 -32.0008 0 -767.999 0 -32.0008 0 0 -32.0008 0 -351.999 -160.002 0 0 -64.0016 160.002 0 0 -338.75 -86.6245 -86.6233 45.2504 -45.2504 86.6257 86.6245 338.748 0 0 -160.002 64.0016 0zm160.001 416.002l0 448.001 -64.0016 0 0 -448.001 64.0016 0zm-128.002 128l0 320.001 -64.0016 0 0 -320.001 64.0016 0zm-127.997 160.001l0 160.001 -64.0016 0 0 -160.001 64.0016 0z"/>
 </g>
</svg>
